<svg width="287" height="257" version="1.1" xmlns="http://www.w3.org/2000/svg" desc="Created with imagetracer.js version 1.2.6" ><path fill="rgb(0,0,0)" stroke="rgb(0,0,0)" stroke-width="1" opacity="0" d="M 0 0 L 287 0 L 287 257 L 0 257 L 0 0 Z M 201 54 L 185 57 L 181 59 L 173 59 L 173 56 L 112 56 Q 110 56 111 63 L 114 64 L 115 70 L 119 72 L 125 73 L 125 115 L 77 115 L 77 86 L 78 85 L 78 74 L 88 72 L 92 69 L 91 62 Q 90 58 84 59 L 83 56 L 23 56 Q 21 56 22 63 L 25 64 L 26 70 L 30 72 L 38 74 L 38 111 L 25 111 L 25 145 L 38 145 L 38 146 L 38 183 L 36 185 L 24 188 Q 21 189 22 195 L 25 196 Q 24 201 28 203 L 90 203 L 92 201 L 91 192 L 87 190 Q 83 191 84 188 L 78 187 L 78 177 L 77 176 L 77 142 L 125 142 L 125 184 L 113 188 Q 110 189 111 195 L 114 196 Q 113 201 117 203 L 179 203 L 181 201 L 196 205 L 215 206 L 216 207 Q 223 205 235 206 L 236 205 L 243 205 L 259 202 L 261 200 L 261 164 L 262 163 L 262 150 L 273 148 L 276 145 L 275 141 L 276 140 L 276 107 L 245 107 L 244 108 L 244 115 L 244 115 L 176 115 L 177 106 L 179 101 L 189 85 L 202 76 L 218 73 L 219 74 Q 227 73 232 75 L 236 93 L 243 103 L 251 102 L 253 99 L 256 78 L 259 67 L 258 63 L 254 60 Q 250 61 251 58 L 229 54 L 201 54 Z " /><path fill="rgb(0,0,0)" stroke="rgb(0,0,0)" stroke-width="1" opacity="0" d="M 175 142 L 208.5 142 L 210 143.5 L 211.5 147 L 222 150 L 223 156.5 L 223 186 L 220.5 187 L 206.5 187 L 195.5 184 L 188 177.5 L 180 164.5 L 176 151.5 L 175 142 Z " /><path fill="rgb(56,89,36)" stroke="rgb(56,89,36)" stroke-width="1" opacity="0.996078431372549" d="M 211.5 56 L 217 56.5 L 211.5 57 L 211.5 56 Z " /><path fill="rgb(56,89,36)" stroke="rgb(56,89,36)" stroke-width="1" opacity="0.996078431372549" d="M 25 59 L 80.5 59 L 82 60.5 Q 82.9 63.5 78.5 62 L 68 66.5 L 68 74.5 L 67 75.5 L 67 115 L 41 115 L 41 69.5 L 37.5 65 L 25 62 L 25 59 Z " /><path fill="rgb(56,89,36)" stroke="rgb(56,89,36)" stroke-width="1" opacity="0.996078431372549" d="M 114 59 L 169.5 59 L 171 60.5 Q 171.9 63.5 167.5 62 L 156 66 L 155 72.5 Q 145.1 81.1 139 93.5 L 134 107.5 L 133 115 L 128 114.5 L 128 67.5 Q 123.3 62 114 62 L 114 59 Z " /><path fill="rgb(56,89,36)" stroke="rgb(56,89,36)" stroke-width="1" opacity="0.996078431372549" d="M 208.5 63 L 215 63.5 L 208.5 64 L 208.5 63 Z " /><path fill="rgb(56,89,36)" stroke="rgb(56,89,36)" stroke-width="1" opacity="0.996078431372549" d="M 184.5 72 L 183.5 74 L 184.5 72 Z " /><path fill="rgb(56,89,36)" stroke="rgb(56,89,36)" stroke-width="1" opacity="0.996078431372549" d="M 158.5 73 L 157.5 75 L 158.5 73 Z " /><path fill="rgb(56,89,36)" stroke="rgb(56,89,36)" stroke-width="1" opacity="0.996078431372549" d="M 179.5 77 L 178.5 79 L 179.5 77 Z " /><path fill="rgb(56,89,36)" stroke="rgb(56,89,36)" stroke-width="1" opacity="0.996078431372549" d="M 41 142 L 67 142 L 67 175.5 L 68 176.5 L 68 186 L 82 191.5 L 81.5 193 L 25 193 Q 23.3 188.5 28.5 190 L 40 186 L 41 182.5 L 41 142 Z " /><path fill="rgb(56,89,36)" stroke="rgb(56,89,36)" stroke-width="1" opacity="0.996078431372549" d="M 128 142 L 133 142 L 133 144.5 Q 135.6 157.9 142 167.5 L 155 181.5 L 157.5 187 Q 165.6 187.9 170 192.5 L 114 193 Q 112.3 188.9 116.5 190 L 123.5 188 L 128 184.5 L 128 142 Z " /><path fill="rgb(56,89,36)" stroke="rgb(56,89,36)" stroke-width="1" opacity="0.996078431372549" d="M 223.5 142 L 224.5 144 L 223.5 142 Z " /><path fill="rgb(56,89,36)" stroke="rgb(56,89,36)" stroke-width="1" opacity="0.996078431372549" d="M 251.5 146 L 252 191.5 L 251 191.5 L 251.5 146 Z " /><path fill="rgb(56,89,36)" stroke="rgb(56,89,36)" stroke-width="1" opacity="0.996078431372549" d="M 149.5 172 L 150.5 174 L 149.5 172 Z " /><path fill="rgb(56,89,36)" stroke="rgb(56,89,36)" stroke-width="1" opacity="0.996078431372549" d="M 152.5 175 L 155.5 179 L 152.5 175 Z " /><path fill="rgb(56,89,36)" stroke="rgb(56,89,36)" stroke-width="1" opacity="0.996078431372549" d="M 181.5 177 L 184.5 181 L 181.5 177 Z " /><path fill="rgb(56,89,36)" stroke="rgb(56,89,36)" stroke-width="1" opacity="0.996078431372549" d="M 228.5 195 L 231 195.5 L 228.5 196 L 228.5 195 Z " /><path fill="rgb(56,89,36)" stroke="rgb(56,89,36)" stroke-width="1" opacity="0.996078431372549" d="M 208.5 196 L 217 196.5 L 208.5 197 L 208.5 196 Z " /><path fill="rgb(250,250,250)" stroke="rgb(250,250,250)" stroke-width="1" opacity="0.9529411764705882" d="M 200.5 54 L 228.5 54 L 251 58 L 249 73.5 L 246 84.5 L 246 89.5 L 243.5 95 L 238.5 96 L 236 92.5 L 231 68 L 222.5 66 L 204.5 66 Q 186.4 69.4 178 82.5 Q 168.5 94.9 168 115 Q 164.5 116.1 166 108.5 Q 168.4 93.9 175 83.5 L 185.5 72 Q 197.5 62 221.5 64 L 230.5 66 L 233 68.5 L 238 91.5 L 239.5 93 Q 244.3 94.7 243 90.5 L 249 60 L 241.5 58 L 225.5 57 L 224.5 56 L 203.5 56 L 202.5 57 L 190.5 58 L 174.5 63 Q 160.6 69.1 151 79.5 L 139 98.5 L 134.5 115 L 134 109.5 L 141 90.5 L 155 73.5 Q 154.1 66.6 158.5 65 L 171 62 L 169.5 58 Q 164.8 56.7 163.5 59 L 119.5 59 L 114.5 58 L 113 60.5 L 116.5 63 L 127 66 L 128 69.5 L 128 115 L 125 114.5 L 125 72.5 L 126 68.5 L 122.5 66 L 115.5 65 L 111 62.5 Q 110.3 56.3 111.5 56 L 173 56 L 173.5 62 L 184.5 57 L 200.5 54 Z M 163 66 L 160 67 L 157 71 L 164 67 L 163 66 Z " /><path fill="rgb(250,250,250)" stroke="rgb(250,250,250)" stroke-width="1" opacity="0.9529411764705882" d="M 22 56 L 82.5 56 L 84 57.5 Q 85.3 62.8 82.5 64 Q 74.3 64.3 70 68.5 L 70 114.5 L 68 115 L 68 68.5 L 70.5 65 L 82 62 L 80.5 58 L 75.5 59 L 32.5 59 Q 31 56.5 25.5 58 Q 22.7 59.3 25 60.5 Q 24.3 62.8 26.5 62 L 39 66 L 40 68.5 L 40 110.5 L 41 117 L 243.5 117 L 244 116.5 L 244 107.5 L 244.5 107 L 276 107 L 276 139.5 L 275.5 140 L 41.5 140 Q 40.5 140 41 144.5 L 40 145.5 L 40 184.5 L 38.5 186 L 25 190 L 25 194 L 32.5 194 L 33.5 193 L 74.5 193 L 75.5 194 L 82 194 Q 84.1 188.8 79.5 190 L 69 185.5 L 68 183.5 L 68 142 L 70 142.5 L 70 183.5 Q 72 186.8 77 186 L 77.5 176 L 78 187 L 84 188 Q 85.8 194.1 82.5 196 L 81.5 195 L 28.5 195 L 23.5 196 Q 20.8 194.8 22 189.5 L 23.5 188 L 35.5 185 L 38 182.5 L 38 145.5 L 37.5 145 L 25 145 L 25 111 L 37.5 111 L 38 110.5 L 38 68.5 L 22 62.5 L 22 56 Z M 110 119 L 110 122 L 114 123 L 114 136 L 117 136 L 117 122 L 122 122 L 122 119 L 110 119 Z M 125 119 L 125 133 L 126 135 Q 128 137 134 136 L 137 132 L 137 120 L 134 119 L 134 132 L 133 133 Q 129 134 128 132 L 128 120 L 125 119 Z M 140 119 L 144 128 L 139 136 L 143 136 L 146 130 L 148 136 L 152 136 L 147 128 L 152 120 L 150 119 L 146 125 L 143 121 Q 144 118 140 119 Z M 154 119 L 154 136 L 157 136 L 157 130 Q 164 132 166 128 L 165 121 L 164 119 L 154 119 Z M 173 119 L 168 136 L 172 135 L 172 132 L 178 132 L 179 136 L 183 136 L 181 133 L 178 121 Q 177 118 173 119 Z M 185 119 L 185 136 L 188 136 L 189 126 L 193 135 L 197 136 L 197 120 L 194 119 L 194 129 L 189 121 L 185 119 Z " /><path fill="rgb(250,250,250)" stroke="rgb(250,250,250)" stroke-width="1" opacity="0.9529411764705882" d="M 256.5 61 L 257.5 63 L 256.5 61 Z " /><path fill="rgb(250,250,250)" stroke="rgb(250,250,250)" stroke-width="1" opacity="0.9529411764705882" d="M 214.5 73 L 217 73.5 L 214.5 74 L 214.5 73 Z " /><path fill="rgb(250,250,250)" stroke="rgb(250,250,250)" stroke-width="1" opacity="0.9529411764705882" d="M 77.5 75 L 78 84.5 L 77 84.5 L 77.5 75 Z " /><path fill="rgb(250,250,250)" stroke="rgb(250,250,250)" stroke-width="1" opacity="0.9529411764705882" d="M 157 122 L 163 122 L 163 127 L 157 127 L 157 122 Z " /><path fill="rgb(250,250,250)" stroke="rgb(250,250,250)" stroke-width="1" opacity="0.9529411764705882" d="M 175.5 124 L 177 129 L 173 128.5 L 175.5 124 Z " /><path fill="rgb(250,250,250)" stroke="rgb(250,250,250)" stroke-width="1" opacity="0.9529411764705882" d="M 125 142 L 128 142.5 L 128 182.5 L 127 186 L 114 190 L 114 194 L 120.5 194 L 121.5 193 L 161.5 193 L 162.5 194 L 173 194.5 L 117.5 195 L 112.5 196 Q 109.8 194.8 111 189.5 L 125 183.5 L 125 142 Z " /><path fill="rgb(250,250,250)" stroke="rgb(250,250,250)" stroke-width="1" opacity="0.9529411764705882" d="M 134.5 142 L 142 163.5 L 157.5 181 L 166.5 187 L 180.5 193 L 202.5 197 L 204.5 197 L 233.5 196 L 250.5 193 L 252 191.5 L 252 144.5 L 253 142 L 257 142.5 L 254 144.5 L 254 192.5 L 252.5 194 L 232.5 198 L 203.5 199 L 202.5 198 L 194.5 198 L 184.5 196 Q 171.3 192.7 161.5 186 L 158.5 187 Q 154.9 184.9 155 180 L 148 174.5 L 137 156.5 L 134 146.5 L 134.5 142 Z M 159 184 L 160 186 L 161 186 L 159 184 Z " /><path fill="rgb(250,250,250)" stroke="rgb(250,250,250)" stroke-width="1" opacity="0.9529411764705882" d="M 166 142 Q 169 140.8 168 144.5 L 171 156.5 L 175 165.5 L 187.5 180 Q 199 188.5 220.5 187 L 223 186 L 223 156.5 Q 220.5 155 222 149.5 L 223 145.5 L 218 142.5 L 222.5 142 L 225 145.5 L 225 187.5 L 223.5 189 L 203.5 189 Q 186.9 185.1 178 173.5 L 171 161.5 L 166 142 Z " /><path fill="rgb(250,250,250)" stroke="rgb(250,250,250)" stroke-width="1" opacity="0.9529411764705882" d="M 261.5 152 L 262 162.5 L 261 162.5 L 261.5 152 Z " /><path fill="rgb(250,250,250)" stroke="rgb(250,250,250)" stroke-width="1" opacity="0.9529411764705882" d="M 215.5 206 L 219 206.5 L 215.5 207 L 215.5 206 Z " /><path fill="rgb(129,133,128)" stroke="rgb(129,133,128)" stroke-width="1" opacity="0.9058823529411765" d="M 203.5 56 L 211 56.5 L 203.5 57 L 203.5 56 Z " /><path fill="rgb(129,133,128)" stroke="rgb(129,133,128)" stroke-width="1" opacity="0.9058823529411765" d="M 217.5 56 L 225 56.5 L 217.5 57 L 217.5 56 Z " /><path fill="rgb(129,133,128)" stroke="rgb(129,133,128)" stroke-width="1" opacity="0.9058823529411765" d="M 195.5 57 L 198 57.5 L 195.5 58 L 195.5 57 Z " /><path fill="rgb(129,133,128)" stroke="rgb(129,133,128)" stroke-width="1" opacity="0.9058823529411765" d="M 232.5 57 L 235 57.5 L 232.5 58 L 232.5 57 Z " /><path fill="rgb(129,133,128)" stroke="rgb(129,133,128)" stroke-width="1" opacity="0.9058823529411765" d="M 25.5 58 L 32 58.5 L 24.5 60 L 25.5 58 Z " /><path fill="rgb(129,133,128)" stroke="rgb(129,133,128)" stroke-width="1" opacity="0.9058823529411765" d="M 76.5 58 Q 81 57 82 59.5 L 80.5 59 Q 75.5 60 76.5 58 Z " /><path fill="rgb(129,133,128)" stroke="rgb(129,133,128)" stroke-width="1" opacity="0.9058823529411765" d="M 114.5 58 L 119 58.5 L 114 59 L 113.5 61 L 113 59.5 L 114.5 58 Z " /><path fill="rgb(129,133,128)" stroke="rgb(129,133,128)" stroke-width="1" opacity="0.9058823529411765" d="M 164.5 58 Q 169.8 56.8 171 59.5 L 169.5 59 Q 163.5 60.3 164.5 58 Z " /><path fill="rgb(129,133,128)" stroke="rgb(129,133,128)" stroke-width="1" opacity="0.9058823529411765" d="M 239.5 58 L 242 58.5 L 239.5 59 L 239.5 58 Z " /><path fill="rgb(129,133,128)" stroke="rgb(129,133,128)" stroke-width="1" opacity="0.9058823529411765" d="M 84.5 62 Q 88.3 61.3 89 63.5 Q 90 68 87.5 69 Q 79.3 69.3 75 73.5 L 75 114.5 L 70 115 L 70 68.5 L 71.5 67 L 82.5 64 L 84.5 62 Z " /><path fill="rgb(129,133,128)" stroke="rgb(129,133,128)" stroke-width="1" opacity="0.9058823529411765" d="M 250 63 Q 254.7 62 256 65.5 L 250 99 L 243.5 100 L 241 95.5 L 245 93.5 L 250 63 Z " /><path fill="rgb(129,133,128)" stroke="rgb(129,133,128)" stroke-width="1" opacity="0.9058823529411765" d="M 202.5 64 L 205 64.5 L 202.5 65 L 202.5 64 Z " /><path fill="rgb(129,133,128)" stroke="rgb(129,133,128)" stroke-width="1" opacity="0.9058823529411765" d="M 28 65 L 38 68.5 Q 39.1 71.8 36.5 71 L 28 67.5 L 28 65 Z " /><path fill="rgb(129,133,128)" stroke="rgb(129,133,128)" stroke-width="1" opacity="0.9058823529411765" d="M 69.5 65 L 69 66.5 L 68.5 68 L 68 66.5 L 69.5 65 Z " /><path fill="rgb(129,133,128)" stroke="rgb(129,133,128)" stroke-width="1" opacity="0.9058823529411765" d="M 117 65 Q 122.8 65 126 68.5 L 125.5 71 L 117 67.5 L 117 65 Z " /><path fill="rgb(129,133,128)" stroke="rgb(129,133,128)" stroke-width="1" opacity="0.9058823529411765" d="M 162.5 66 L 164 66.5 L 157 71 L 159.5 67 L 162.5 66 Z " /><path fill="rgb(129,133,128)" stroke="rgb(129,133,128)" stroke-width="1" opacity="0.9058823529411765" d="M 204.5 66 L 222.5 66 L 231 68 L 232 72.5 L 230.5 72 Q 222.2 69.3 209.5 71 Q 191.6 74.6 183 87.5 Q 174.9 98.6 173 115 L 168 115 L 168 107.5 L 172 93.5 L 176 85.5 L 188.5 72 Q 195 67.5 204.5 66 Z " /><path fill="rgb(129,133,128)" stroke="rgb(129,133,128)" stroke-width="1" opacity="0.9058823529411765" d="M 231.5 66 L 232.5 68 L 231.5 66 Z " /><path fill="rgb(129,133,128)" stroke="rgb(129,133,128)" stroke-width="1" opacity="0.9058823529411765" d="M 40.5 69 L 41 110.5 L 40 110.5 L 40.5 69 Z " /><path fill="rgb(129,133,128)" stroke="rgb(129,133,128)" stroke-width="1" opacity="0.9058823529411765" d="M 187.5 70 L 186.5 72 L 187.5 70 Z " /><path fill="rgb(129,133,128)" stroke="rgb(129,133,128)" stroke-width="1" opacity="0.9058823529411765" d="M 160.5 71 L 159.5 73 L 160.5 71 Z " /><path fill="rgb(129,133,128)" stroke="rgb(129,133,128)" stroke-width="1" opacity="0.9058823529411765" d="M 154.5 73 L 149.5 79 L 154.5 73 Z " /><path fill="rgb(129,133,128)" stroke="rgb(129,133,128)" stroke-width="1" opacity="0.9058823529411765" d="M 182.5 74 L 180.5 77 L 182.5 74 Z " /><path fill="rgb(129,133,128)" stroke="rgb(129,133,128)" stroke-width="1" opacity="0.9058823529411765" d="M 67.5 75 L 68 114.5 L 67 114.5 L 67.5 75 Z " /><path fill="rgb(129,133,128)" stroke="rgb(129,133,128)" stroke-width="1" opacity="0.9058823529411765" d="M 155.5 75 L 151.5 80 L 155.5 75 Z " /><path fill="rgb(129,133,128)" stroke="rgb(129,133,128)" stroke-width="1" opacity="0.9058823529411765" d="M 177.5 80 L 176.5 82 L 177.5 80 Z " /><path fill="rgb(129,133,128)" stroke="rgb(129,133,128)" stroke-width="1" opacity="0.9058823529411765" d="M 147.5 81 L 145.5 84 L 147.5 81 Z " /><path fill="rgb(129,133,128)" stroke="rgb(129,133,128)" stroke-width="1" opacity="0.9058823529411765" d="M 148.5 83 L 147.5 85 L 148.5 83 Z " /><path fill="rgb(129,133,128)" stroke="rgb(129,133,128)" stroke-width="1" opacity="0.9058823529411765" d="M 144.5 85 L 143.5 87 L 144.5 85 Z " /><path fill="rgb(129,133,128)" stroke="rgb(129,133,128)" stroke-width="1" opacity="0.9058823529411765" d="M 133.5 112 L 134 114.5 L 133 114.5 L 133.5 112 Z " /><path fill="rgb(129,133,128)" stroke="rgb(129,133,128)" stroke-width="1" opacity="0.9058823529411765" d="M 135.5 112 L 136 114.5 L 135 114.5 L 135.5 112 Z " /><path fill="rgb(129,133,128)" stroke="rgb(129,133,128)" stroke-width="1" opacity="0.9058823529411765" d="M 165.5 112 L 166 114.5 L 165 114.5 L 165.5 112 Z " /><path fill="rgb(129,133,128)" stroke="rgb(129,133,128)" stroke-width="1" opacity="0.9058823529411765" d="M 67.5 142 L 68 175.5 L 67 175.5 L 67.5 142 Z " /><path fill="rgb(129,133,128)" stroke="rgb(129,133,128)" stroke-width="1" opacity="0.9058823529411765" d="M 70 142 L 75 142.5 L 75 186 L 70 183.5 L 70 142 Z " /><path fill="rgb(129,133,128)" stroke="rgb(129,133,128)" stroke-width="1" opacity="0.9058823529411765" d="M 133.5 142 L 134 144.5 L 133 144.5 L 133.5 142 Z " /><path fill="rgb(129,133,128)" stroke="rgb(129,133,128)" stroke-width="1" opacity="0.9058823529411765" d="M 168 142 L 173 142 L 173 149.5 L 176 161.5 L 183 174.5 L 179 171.5 L 171 156.5 L 168 142 Z " /><path fill="rgb(129,133,128)" stroke="rgb(129,133,128)" stroke-width="1" opacity="0.9058823529411765" d="M 212 142 Q 219.8 140.8 223 145.5 L 222.5 148 L 212 143.5 L 212 142 Z " /><path fill="rgb(129,133,128)" stroke="rgb(129,133,128)" stroke-width="1" opacity="0.9058823529411765" d="M 257.5 142 L 272.5 142 L 273 143.5 L 259 149.5 L 259 197.5 L 257.5 199 L 237.5 203 L 208.5 204 L 207.5 203 L 199.5 203 L 189.5 201 L 178 197 Q 179.5 200.8 176.5 200 L 174.5 200 L 117.5 200 L 117 195 L 173 194.5 L 162 193.5 L 170 192.5 L 160 187.5 L 160.5 186 L 157 183.5 L 158.5 184 Q 170.8 193.2 188.5 197 L 202.5 198 L 203.5 199 L 221.5 199 L 222.5 198 L 232.5 198 L 233.5 197 L 244.5 196 L 254 192.5 L 254 144.5 L 255.5 143 L 257.5 142 Z " /><path fill="rgb(129,133,128)" stroke="rgb(129,133,128)" stroke-width="1" opacity="0.9058823529411765" d="M 40.5 145 L 41 182.5 L 40 182.5 L 40.5 145 Z " /><path fill="rgb(129,133,128)" stroke="rgb(129,133,128)" stroke-width="1" opacity="0.9058823529411765" d="M 142.5 167 L 143.5 169 L 142.5 167 Z " /><path fill="rgb(129,133,128)" stroke="rgb(129,133,128)" stroke-width="1" opacity="0.9058823529411765" d="M 146.5 169 L 148.5 172 L 146.5 169 Z " /><path fill="rgb(129,133,128)" stroke="rgb(129,133,128)" stroke-width="1" opacity="0.9058823529411765" d="M 144.5 170 L 147.5 174 L 144.5 170 Z " /><path fill="rgb(129,133,128)" stroke="rgb(129,133,128)" stroke-width="1" opacity="0.9058823529411765" d="M 156.5 179 L 157.5 181 L 156.5 179 Z " /><path fill="rgb(129,133,128)" stroke="rgb(129,133,128)" stroke-width="1" opacity="0.9058823529411765" d="M 186.5 181 L 187.5 183 L 186.5 181 Z " /><path fill="rgb(129,133,128)" stroke="rgb(129,133,128)" stroke-width="1" opacity="0.9058823529411765" d="M 160.5 182 L 161.5 184 L 160.5 182 Z " /><path fill="rgb(129,133,128)" stroke="rgb(129,133,128)" stroke-width="1" opacity="0.9058823529411765" d="M 156.5 185 L 157.5 187 L 156.5 185 Z " /><path fill="rgb(129,133,128)" stroke="rgb(129,133,128)" stroke-width="1" opacity="0.9058823529411765" d="M 208.5 189 L 218 189.5 L 208.5 190 L 208.5 189 Z " /><path fill="rgb(129,133,128)" stroke="rgb(129,133,128)" stroke-width="1" opacity="0.9058823529411765" d="M 25.5 193 L 33 193.5 L 25.5 194 L 25.5 193 Z " /><path fill="rgb(129,133,128)" stroke="rgb(129,133,128)" stroke-width="1" opacity="0.9058823529411765" d="M 75.5 193 L 82 193.5 L 75.5 194 L 75.5 193 Z " /><path fill="rgb(129,133,128)" stroke="rgb(129,133,128)" stroke-width="1" opacity="0.9058823529411765" d="M 84 193 Q 87.8 192.3 89 195.5 Q 89.5 200 88.5 200 L 28 200 L 28.5 195 L 81.5 195 Q 82.8 197.3 84 194.5 L 84 193 Z " /><path fill="rgb(129,133,128)" stroke="rgb(129,133,128)" stroke-width="1" opacity="0.9058823529411765" d="M 114.5 193 L 121 193.5 L 114.5 194 L 114.5 193 Z " /><path fill="rgb(129,133,128)" stroke="rgb(129,133,128)" stroke-width="1" opacity="0.9058823529411765" d="M 231.5 195 L 234 195.5 L 231.5 196 L 231.5 195 Z " /><path fill="rgb(129,133,128)" stroke="rgb(129,133,128)" stroke-width="1" opacity="0.9058823529411765" d="M 204.5 196 L 208 196.5 L 204.5 197 L 204.5 196 Z " /><path fill="rgb(129,133,128)" stroke="rgb(129,133,128)" stroke-width="1" opacity="0.9058823529411765" d="M 217.5 196 L 224 196.5 L 217.5 197 L 217.5 196 Z " /><path fill="rgb(0,102,0)" stroke="rgb(0,102,0)" stroke-width="1" opacity="0.996078431372549" d="M 200.5 57 L 229.5 57 L 248 60 L 243 92 L 239 93 L 234 70.5 L 231.5 66 L 224.5 64 L 208.5 63 L 197.5 65 L 190.5 68 L 178 78.5 Q 166.5 92.3 165 115 L 243.5 115 L 244 117 L 41.5 117 L 41 115 L 135.5 115 L 136 111.5 Q 140.8 87.8 156.5 75 L 173.5 64 L 184.5 60 L 200.5 57 Z " /><path fill="rgb(0,102,0)" stroke="rgb(0,102,0)" stroke-width="1" opacity="0.996078431372549" d="M 110 119 L 121.5 119 L 122 122 L 117 122 L 117 135.5 L 114 136 L 114 122.5 L 110 122 L 110 119 Z " /><path fill="rgb(0,102,0)" stroke="rgb(0,102,0)" stroke-width="1" opacity="0.996078431372549" d="M 125 119 L 128 119.5 L 128 131.5 Q 128.8 133.8 132.5 133 L 134 131.5 L 134 119 L 137 119.5 L 137 131.5 L 133.5 136 Q 128.1 136.6 126 135 L 125 132.5 L 125 119 Z " /><path fill="rgb(0,102,0)" stroke="rgb(0,102,0)" stroke-width="1" opacity="0.996078431372549" d="M 139.5 119 Q 143.9 117.5 143 120.5 L 145.5 125 L 149.5 119 L 152 119.5 L 147 127.5 L 152 135.5 L 148 136 L 145.5 130 L 143 136 L 139 135.5 L 144 127.5 L 139.5 119 Z " /><path fill="rgb(0,102,0)" stroke="rgb(0,102,0)" stroke-width="1" opacity="0.996078431372549" d="M 154 119 L 163.5 119 L 165 120.5 L 166 127.5 Q 164.1 131.8 157 130 L 157 136 L 154 136 L 154 119 Z M 157 122 L 157 127 L 163 127 L 163 122 L 157 122 Z " /><path fill="rgb(0,102,0)" stroke="rgb(0,102,0)" stroke-width="1" opacity="0.996078431372549" d="M 173 119 Q 176.8 118 178 120.5 L 181 132.5 L 183 135.5 L 179 136 L 178 132 L 172 132 L 172 134.5 L 168 136 L 173 119 Z M 176 124 L 173 129 L 177 129 L 176 124 Z " /><path fill="rgb(0,102,0)" stroke="rgb(0,102,0)" stroke-width="1" opacity="0.996078431372549" d="M 185 119 L 189 120.5 L 193.5 129 L 194 119 L 197 119.5 L 197 136 L 193 134.5 L 188.5 126 L 188 136 L 185 135.5 L 185 119 Z " /><path fill="rgb(0,102,0)" stroke="rgb(0,102,0)" stroke-width="1" opacity="0.996078431372549" d="M 41 140 L 275 140.5 L 271.5 142 L 252 142 L 251 146.5 L 251 192 L 227.5 196 L 197.5 196 L 174.5 190 L 164.5 185 L 151 175 L 144 165.5 L 139 155.5 L 136 142 L 41.5 142 L 41 140 Z M 166 142 Q 168 163 179 176 L 191 185 L 207 190 L 220 190 L 221 189 Q 225 189 225 189 L 225 144 L 224 142 L 166 142 Z " /><path fill="rgb(126,126,126)" stroke="rgb(126,126,126)" stroke-width="1" opacity="0.13333333333333333" d="M 84 59 Q 89.5 57.8 91 61.5 L 92 67.5 L 89.5 71 L 77 75.5 L 77 114.5 L 75 115 L 75 73.5 L 76.5 72 L 89 67.5 Q 90 63 87.5 62 Q 82.3 63.5 84 59 Z " /><path fill="rgb(126,126,126)" stroke="rgb(126,126,126)" stroke-width="1" opacity="0.13333333333333333" d="M 173 59 L 178 59.5 L 173 61 L 173 59 Z " /><path fill="rgb(126,126,126)" stroke="rgb(126,126,126)" stroke-width="1" opacity="0.13333333333333333" d="M 251 60 Q 255.9 59.9 258 63.5 L 258 71.5 L 255 82.5 L 255 87.5 L 253 97.5 L 250.5 102 L 242.5 103 Q 239.3 101.3 239 96.5 Q 240.5 93.5 242 96.5 L 243.5 100 L 250 99 L 256 65.5 Q 254.8 62.3 251 63 L 251 60 Z " /><path fill="rgb(126,126,126)" stroke="rgb(126,126,126)" stroke-width="1" opacity="0.13333333333333333" d="M 25.5 64 L 28 65 L 29.5 69 L 38 71 Q 39.5 74.8 36.5 74 L 26 69.5 L 25.5 64 Z " /><path fill="rgb(126,126,126)" stroke="rgb(126,126,126)" stroke-width="1" opacity="0.13333333333333333" d="M 114.5 64 L 117 65 L 118.5 69 L 124.5 70 L 126 71.5 L 122.5 73 L 115 69.5 L 114.5 64 Z " /><path fill="rgb(126,126,126)" stroke="rgb(126,126,126)" stroke-width="1" opacity="0.13333333333333333" d="M 209.5 71 L 226.5 71 L 232 73.5 Q 232.8 76.1 229.5 75 L 228.5 74 L 214.5 73 L 201.5 76 Q 193.2 79.2 188 85.5 Q 177.6 96.5 176 115 Q 171.9 116.7 173 112.5 L 177 98.5 L 181 90.5 L 192.5 78 Q 199.1 72.6 209.5 71 Z " /><path fill="rgb(126,126,126)" stroke="rgb(126,126,126)" stroke-width="1" opacity="0.13333333333333333" d="M 274.5 141 L 276 143.5 L 273.5 147 L 262 150 L 261 152.5 L 261 199.5 L 259.5 201 L 248.5 204 L 234.5 205 L 233.5 206 L 202.5 206 L 180.5 201 L 178.5 203 L 116.5 203 L 114 196 L 117 196 L 117.5 200 L 174.5 200 L 176.5 200 L 178 200 Q 176.5 196.2 179.5 197 L 189.5 201 L 199.5 203 L 226.5 204 L 227.5 203 L 244.5 202 L 254.5 200 L 259 197.5 L 259 149.5 L 260.5 148 L 269.5 146 L 273 143.5 L 274.5 141 Z " /><path fill="rgb(126,126,126)" stroke="rgb(126,126,126)" stroke-width="1" opacity="0.13333333333333333" d="M 75 142 L 77 142.5 L 77 186 L 75 185.5 L 75 142 Z " /><path fill="rgb(126,126,126)" stroke="rgb(126,126,126)" stroke-width="1" opacity="0.13333333333333333" d="M 173 142 Q 176.3 140.7 175 145.5 L 180 164.5 Q 184.4 174.6 192 181.5 L 190.5 181 L 183 175.5 L 175 158.5 L 173 149.5 L 173 142 Z " /><path fill="rgb(126,126,126)" stroke="rgb(126,126,126)" stroke-width="1" opacity="0.13333333333333333" d="M 210 142 Q 212.7 140.9 212 143.5 L 223 148.5 L 220.5 150 L 210 145.5 L 210 142 Z " /><path fill="rgb(126,126,126)" stroke="rgb(126,126,126)" stroke-width="1" opacity="0.13333333333333333" d="M 84 190 Q 88.9 189.9 91 193.5 L 92 200.5 L 89.5 203 L 27.5 203 L 25 196 L 28 196 L 28.5 200 L 89 200 Q 90.3 194.5 86.5 193 Q 82.3 194.1 84 190 Z " /></svg>